HIERARCHY
ROOT Hips
{
	OFFSET -0.001795 -0.223333 0.028219
	CHANNELS 6 Xposition Yposition Zposition Zrotation Yrotation Xrotation 
	JOINT LeftUpLeg
	{
		OFFSET 0.069520 -0.091406 -0.006815
		CHANNELS 3 Zrotation Yrotation Xrotation
		JOINT LeftLeg
		{
			OFFSET 0.034277 -0.375199 -0.004496
			CHANNELS 3 Zrotation Yrotation Xrotation
			JOINT LeftFoot
			{
				OFFSET -0.013596 -0.397961 -0.043693
				CHANNELS 3 Zrotation Yrotation Xrotation
				JOINT LeftToe
				{
					OFFSET 0.026358 -0.055791 0.119288
					CHANNELS 3 Zrotation Yrotation Xrotation
					End Site
					{
						OFFSET 0.000000 0.000000 0.000000
					}
				}
			}
		}
	}
	JOINT RightUpLeg
	{
		OFFSET -0.067670 -0.090522 -0.004320
		CHANNELS 3 Zrotation Yrotation Xrotation
		JOINT RightLeg
		{
			OFFSET -0.038290 -0.382569 -0.008850
			CHANNELS 3 Zrotation Yrotation Xrotation
			JOINT RightFoot
			{
				OFFSET 0.015774 -0.398415 -0.042312
				CHANNELS 3 Zrotation Yrotation Xrotation
				JOINT RightToe
				{
					OFFSET -0.025372 -0.048144 0.123348
					CHANNELS 3 Zrotation Yrotation Xrotation
					End Site
					{
						OFFSET 0.000000 0.000000 0.000000
					}
				}
			}
		}
	}
	JOINT Spine
	{
		OFFSET -0.002533 0.108963 -0.026696
		CHANNELS 3 Zrotation Yrotation Xrotation
		JOINT Spine1
		{
			OFFSET 0.005487 0.135180 0.001092
			CHANNELS 3 Zrotation Yrotation Xrotation
			JOINT Spine2
			{
				OFFSET 0.001457 0.052922 0.025425
				CHANNELS 3 Zrotation Yrotation Xrotation
				JOINT Neck
				{
					OFFSET -0.002778 0.213870 -0.042857
					CHANNELS 3 Zrotation Yrotation Xrotation
					JOINT Head
					{
						OFFSET 0.005152 0.064970 0.051349
						CHANNELS 3 Zrotation Yrotation Xrotation
						End Site
						{
							OFFSET 0.000000 0.000000 0.000000
						}
					}
				}
				JOINT LeftShoulder
				{
					OFFSET 0.078845 0.121749 -0.034090
					CHANNELS 3 Zrotation Yrotation Xrotation
					JOINT LeftArm
					{
						OFFSET 0.090977 0.030469 -0.008868
						CHANNELS 3 Zrotation Yrotation Xrotation
						JOINT LeftForeArm
						{
							OFFSET 0.259612 -0.012772 -0.027456
							CHANNELS 3 Zrotation Yrotation Xrotation
							JOINT LeftHand
							{
								OFFSET 0.249234 0.008986 -0.001171
								CHANNELS 3 Zrotation Yrotation Xrotation
								End Site
								{
									OFFSET 0.000000 0.000000 0.000000
								}
							}
						}
					}
				}
				JOINT RightShoulder
				{
					OFFSET -0.081759 0.118833 -0.038615
					CHANNELS 3 Zrotation Yrotation Xrotation
					JOINT RightArm
					{
						OFFSET -0.096012 0.032551 -0.009143
						CHANNELS 3 Zrotation Yrotation Xrotation
						JOINT RightForeArm
						{
							OFFSET -0.253742 -0.013329 -0.021401
							CHANNELS 3 Zrotation Yrotation Xrotation
							JOINT RightHand
							{
								OFFSET -0.255298 0.007772 -0.005559
								CHANNELS 3 Zrotation Yrotation Xrotation
								End Site
								{
									OFFSET 0.000000 0.000000 0.000000
								}
							}
						}
					}
				}
			}
		}
	}
}
MOTION
Frames: 7
Frame Time: 0.050000
0.007473 0.958405 0.004302 -1.118947 2.867469 4.135169 4.601210 -0.271153 -2.865870 2.628230 -0.063168 -3.666313 -4.222298 -1.328334 13.510831 0.000000 0.000000 0.000000 -2.697709 0.322482 -3.181449 -1.564910 0.143911 -0.527805 -2.425876 -10.059414 16.526482 0.000000 0.000000 0.000000 -1.575395 0.114107 -3.243344 -1.348596 0.605243 1.191477 2.556728 -2.032668 1.670106 -1.548440 1.945420 -16.074326 0.000000 0.000000 0.000000 -19.899388 -7.043659 2.155362 -54.561460 -11.792528 -0.931670 -7.003841 -15.898752 1.564395 0.000000 0.000000 0.000000 18.997814 13.399374 5.105637 54.861832 11.021753 0.052174 7.111100 19.835380 1.694557 0.000000 0.000000 0.000000 
0.007861 0.958508 0.003876 -1.178639 3.210141 4.340469 4.633259 -0.294380 -3.225148 2.685037 -0.069105 -3.604551 -4.379098 -1.527841 13.529742 0.000000 0.000000 0.000000 -2.713614 0.343683 -3.458640 -1.580155 0.160961 -0.251582 -2.314524 -9.785164 16.387162 0.000000 0.000000 0.000000 -1.652857 0.107391 -2.976894 -1.416691 0.638576 1.066379 2.543185 -1.892062 1.503608 -1.675950 2.060156 -16.312314 0.000000 0.000000 0.000000 -19.609309 -7.283467 2.198981 -54.601559 -12.515781 -0.559611 -6.710320 -15.695076 1.496666 0.000000 0.000000 0.000000 18.917242 13.438872 5.213957 54.975961 11.657889 0.348295 7.008073 19.884108 1.690884 0.000000 0.000000 0.000000 
0.008280 0.958773 0.003201 -1.213641 3.432663 4.356580 4.638547 -0.309564 -3.487958 2.716643 -0.085764 -3.334016 -4.483168 -1.662266 13.536523 0.000000 0.000000 0.000000 -2.692601 0.363693 -3.729807 -1.529517 0.177828 0.167211 -2.478490 -10.049934 16.490503 0.000000 0.000000 0.000000 -1.850987 0.095678 -2.498469 -1.266251 0.567619 0.955539 2.441703 -1.719152 1.197040 -1.805315 2.161393 -16.218325 0.000000 0.000000 0.000000 -19.533859 -7.323784 2.123913 -54.472299 -12.933143 -0.319329 -6.403393 -15.764752 1.453694 0.000000 0.000000 0.000000 19.045564 13.769467 5.485311 54.567804 12.063194 0.539324 7.187191 20.015515 1.738311 0.000000 0.000000 0.000000 
0.008588 0.958979 0.002198 -1.253408 3.567364 4.585494 4.560804 -0.333937 -3.897598 2.907013 -0.105626 -3.221232 -4.541950 -1.711620 13.597349 0.000000 0.000000 0.000000 -2.794199 0.403905 -4.258975 -1.457449 0.185100 0.465022 -2.352541 -9.873402 16.862518 0.000000 0.000000 0.000000 -2.085448 0.089018 -2.107040 -1.279129 0.574163 0.887823 2.542159 -1.454186 0.901293 -1.775794 2.184087 -16.514761 0.000000 0.000000 0.000000 -19.446847 -7.640287 2.205726 -54.601879 -13.776905 0.123975 -6.014518 -15.411247 1.361047 0.000000 0.000000 0.000000 18.797814 14.020578 5.694598 54.460829 12.980154 0.972845 7.514067 20.218750 1.816335 0.000000 0.000000 0.000000 
0.008609 0.958994 0.000667 -1.275212 3.584609 4.730787 4.682818 -0.341786 -4.022200 2.729663 -0.078268 -3.465934 -4.575357 -1.707602 13.721822 0.000000 0.000000 0.000000 -2.751416 0.437248 -4.682630 -1.427695 0.201670 0.863530 -2.461340 -10.016712 16.632092 0.000000 0.000000 0.000000 -2.299533 0.083605 -1.714055 -1.301793 0.583004 0.936925 2.730757 -1.193080 0.426866 -1.859564 2.256200 -16.657716 0.000000 0.000000 0.000000 -19.620487 -7.963288 2.304697 -54.536052 -14.322304 0.437955 -5.546468 -15.374104 1.289787 0.000000 0.000000 0.000000 18.999160 14.824894 6.200570 53.924869 14.302631 1.593230 7.611354 20.089194 1.821362 0.000000 0.000000 0.000000 
0.008144 0.959128 -0.001350 -1.240837 3.425191 5.041914 4.793165 -0.374643 -4.648321 2.500544 -0.079779 -3.139361 -4.489297 -1.555407 13.807902 0.000000 0.000000 0.000000 -2.802201 0.499743 -5.495564 -1.310262 0.209638 1.318910 -2.578009 -10.273242 16.816455 0.000000 0.000000 0.000000 -2.509723 0.080581 -1.283164 -1.380053 0.633780 0.425538 2.822579 -0.921752 0.443078 -1.638793 2.197076 -17.811832 0.000000 0.000000 0.000000 -19.994779 -8.476300 2.533552 -54.432233 -15.069505 0.798196 -4.906944 -15.898869 1.245936 0.000000 0.000000 0.000000 19.362461 15.793135 6.824810 53.529459 16.189141 2.424055 7.613678 21.391976 1.960053 0.000000 0.000000 0.000000 
0.007178 0.959227 -0.003708 -1.354697 2.983673 5.347023 4.935202 -0.392737 -5.055342 2.531776 -0.083856 -3.136633 -4.269677 -1.204991 13.943505 0.000000 0.000000 0.000000 -2.715146 0.566320 -6.305784 -1.196669 0.217417 1.786263 -2.415465 -10.041690 16.677915 0.000000 0.000000 0.000000 -2.751530 0.082184 -0.955915 -1.306066 0.600815 0.363245 2.973076 -0.422967 -0.026411 -1.562564 2.203761 -18.455449 0.000000 0.000000 0.000000 -19.926417 -9.067947 2.781899 -54.287768 -15.796041 1.200090 -4.227866 -17.237111 1.246060 0.000000 0.000000 0.000000 19.531178 16.758833 7.444501 53.178528 18.829070 3.636103 7.681608 22.657575 2.107685 0.000000 0.000000 0.000000 
